Coordinates
version=1
nRows=13
nColumns=40
inDegrees=yes

Units are S.I. units (second, meters, Newtons, ...)
Angles are in degrees.

endheader
time	pelvis_tilt	pelvis_list	pelvis_rotation	pelvis_tx	pelvis_ty	pelvis_tz	hip_flexion_r	hip_adduction_r	hip_rotation_r	knee_angle_r	knee_angle_r_beta	ankle_angle_r	subtalar_angle_r	mtp_angle_r	hip_flexion_l	hip_adduction_l	hip_rotation_l	knee_angle_l	knee_angle_l_beta	ankle_angle_l	subtalar_angle_l	mtp_angle_l	lumbar_extension	lumbar_bending	lumbar_rotation	arm_flex_r	arm_add_r	arm_rot_r	elbow_flex_r	pro_sup_r	wrist_flex_r	wrist_dev_r	arm_flex_l	arm_add_l	arm_rot_l	elbow_flex_l	pro_sup_l	wrist_flex_l	wrist_dev_l
     30.25250000	     -3.19781700	     -6.01702056	     -3.96341230	      0.93576005	      0.92413019	      0.50622852	     18.92552849	      5.07388927	    -14.43954225	     17.32868681	     17.32868681	      3.78241384	     -2.01513193	     -5.84329779	     11.85371891	    -12.23549042	     -6.07369678	     52.67540898	     52.67540898	     11.57473369	    -18.22501329	      3.44119787	     -8.84424201	      7.76820676	      3.04511287	      0.90670902	    -11.47802931	     -7.93263166	     28.69060668	     46.30239198	      0.00000000	      0.00000000	     11.92046598	    -10.99663014	     -8.12024188	     68.31502484	     47.27295840	      0.00000000	      0.00000000
     30.26457143	     -3.11071531	     -6.06909466	     -3.62271056	      0.93571918	      0.92491144	      0.50806797	     18.24797247	      5.14504183	    -14.81212101	     17.21575279	     17.21575279	      4.21700632	     -1.71532781	     -6.04286018	     13.92746151	    -12.57941039	     -4.94114358	     56.17031740	     56.17031740	     10.29656908	    -18.38800698	      4.87519371	     -8.95344817	      7.77257975	      2.84405385	      2.63974008	    -11.54508176	     -7.12259322	     30.03557600	     46.19964297	      0.00000000	      0.00000000	     11.46939696	    -10.66236587	     -7.82451377	     65.87977920	     47.21571263	      0.00000000	      0.00000000
     30.27664286	     -3.06074941	     -6.19841717	     -3.27646654	      0.93546608	      0.92550809	      0.50979034	     17.59516584	      5.32526228	    -15.14653413	     17.03385597	     17.03385597	      4.56298643	     -1.58334315	     -6.14762986	     16.00820766	    -12.97071927	     -3.86113510	     59.25455419	     59.25455419	      8.97714165	    -18.49727488	      5.31424264	     -9.09747116	      7.84020819	      2.91370259	      4.38148432	    -11.62721572	     -6.94594795	     31.01626392	     46.16006482	      0.00000000	      0.00000000	     10.77276708	    -10.17904462	     -7.45060001	     64.69154081	     47.16521091	      0.00000000	      0.00000000
     30.28871429	     -3.03659112	     -6.27457276	     -2.91869256	      0.93509415	      0.92600255	      0.51137182	     16.98258816	      5.44523701	    -15.45215897	     16.85563559	     16.85563559	      4.89564798	     -1.38194334	     -6.26690201	     18.07722802	    -13.22085194	     -2.81124284	     61.91290441	     61.91290441	      8.13088994	    -18.51201976	      5.92941624	     -9.16512510	      7.81141993	      2.69508725	      6.23230910	    -11.66090352	     -6.70386080	     32.25009099	     46.10629345	      0.00000000	      0.00000000	     10.07126533	     -9.88458414	     -7.04939007	     62.84332814	     47.10268909	      0.00000000	      0.00000000
     30.30078571	     -3.02919496	     -6.13117340	     -2.53124357	      0.93462005	      0.92661997	      0.51259022	     16.38463318	      5.28305368	    -15.91249079	     16.67121371	     16.67121371	      5.31155720	     -0.92452702	     -6.48456787	     20.12605201	    -13.08944793	     -1.82743121	     64.10524250	     64.10524250	      8.22964936	    -18.39381208	      8.50072628	     -9.13182363	      7.68807280	      2.47419553	      7.70003775	    -11.86304918	     -5.38943605	     34.71411234	     45.92915518	      0.00000000	      0.00000000	     10.36606535	     -9.64126208	     -6.32549178	     57.79435506	     46.97510555	      0.00000000	      0.00000000
     30.31285714	     -3.04022955	     -6.24919238	     -2.17140088	      0.93397618	      0.92704409	      0.51394851	     15.81308736	      5.46469023	    -16.20199426	     16.45731645	     16.45731645	      5.60214678	     -0.85572874	     -6.53425794	     22.10788088	    -13.31911071	     -0.97670153	     65.76381298	     65.76381298	      7.93539810	    -18.37281247	      8.79994950	     -9.21708003	      7.74124722	      2.72827362	      9.34836442	    -12.15924297	     -5.11910432	     35.94494644	     45.87504598	      0.00000000	      0.00000000	      9.76644198	     -9.11311243	     -5.90866638	     56.32807777	     46.91475830	      0.00000000	      0.00000000
     30.32492857	     -2.96590739	     -6.12030823	     -1.82800359	      0.93337865	      0.92780177	      0.51512098	     15.10754274	      5.36910060	    -16.46575913	     16.17842372	     16.17842372	      5.93246856	     -0.51510983	     -6.66594600	     23.86969539	    -13.19630415	     -0.29510934	     66.86549470	     66.86549470	      8.43390899	    -18.27295368	     10.71787931	     -9.28915933	      7.56387381	      3.19148376	     10.12411421	    -12.96273991	     -3.08194398	     39.41694493	     45.62564616	      0.00000000	      0.00000000	     10.81002430	     -8.54642200	     -4.79600048	     50.19388859	     46.74918983	      0.00000000	      0.00000000
     30.33700000	     -3.04156749	     -6.12217341	     -1.48035387	      0.93259909	      0.92829043	      0.51629328	     14.52684019	      5.46733160	    -16.66614135	     15.77915287	     15.77915287	      6.17716844	     -0.43408811	     -6.68730887	     25.71849453	    -13.27794496	      0.25320494	     67.42313321	     67.42313321	      8.72633630	    -18.22863545	     11.35854150	     -9.26881833	      7.50660736	      3.63969110	     10.98366726	    -13.77861032	     -1.71780870	     42.72597155	     45.43986005	      0.00000000	      0.00000000	     10.92863917	     -8.05851064	     -3.77801344	     46.60104309	     46.60402442	      0.00000000	      0.00000000
     30.34907143	     -3.05466827	     -6.07196295	     -1.13155501	      0.93186462	      0.92896931	      0.51740696	     13.84174757	      5.52525520	    -16.83578300	     15.31597215	     15.31597215	      6.41153460	     -0.36053388	     -6.66701157	     27.30790615	    -13.32005441	      0.60637998	     67.31782274	     67.31782274	      8.89011027	    -18.30330784	     11.36590506	     -9.32692407	      7.37838961	      3.23979726	     13.04636790	    -13.74781338	     -1.71818550	     44.24193063	     45.39803337	      0.00000000	      0.00000000	      9.94429903	     -8.00790823	     -3.44631342	     44.76949435	     46.54046863	      0.00000000	      0.00000000
     30.36114286	     -3.05976001	     -5.99509505	     -0.83333852	      0.93111230	      0.92972224	      0.51849033	     13.11489219	      5.57290658	    -16.95048086	     14.78392114	     14.78392114	      6.60820587	     -0.19482057	     -6.80791995	     28.73836766	    -13.34150810	      0.79887536	     66.66235379	     66.66235379	      9.23522891	    -18.38211472	     11.87502673	     -9.35161172	      7.22122180	      3.62021103	     14.30360008	    -14.35925734	     -1.08559073	     46.75526937	     45.29540788	      0.00000000	      0.00000000	     10.34732309	     -7.47530818	     -2.78239964	     40.00796460	     46.42421443	      0.00000000	      0.00000000
     30.37321429	     -3.09182166	     -5.91264400	     -0.49665597	      0.93036105	      0.93043727	      0.51941818	     12.37563525	      5.62816740	    -17.06820076	     14.16913335	     14.16913335	      6.81443286	     -0.10765861	     -6.75794542	     30.03382535	    -13.32048266	      0.91562557	     65.44921420	     65.44921420	      9.49221508	    -18.52492589	     12.06801374	     -9.38211585	      7.07657154	      3.20781215	     16.36241134	    -14.30430835	     -1.24058465	     48.37394697	     45.25829132	      0.00000000	      0.00000000	      9.29864644	     -7.43945809	     -2.54985456	     38.29585592	     46.37007066	      0.00000000	      0.00000000
     30.38528571	     -3.11282740	     -5.83769563	     -0.20938490	      0.92963233	      0.93115735	      0.52027268	     11.59883229	      5.69652190	    -17.18983487	     13.50483218	     13.50483218	      6.93928596	      0.07380497	     -6.96600633	     31.14532212	    -13.31452127	      0.89481702	     63.76061667	     63.76061667	      9.94588994	    -18.58387593	     12.92353750	     -9.38239347	      6.93544916	      3.60172725	     17.60957434	    -14.88580555	     -1.11203303	     50.99974925	     45.18235286	      0.00000000	      0.00000000	      9.57475796	     -6.94802790	     -2.09789429	     33.87765283	     46.28266115	      0.00000000	      0.00000000
     30.39735714	     -3.13847650	     -5.75481310	      0.07673445	      0.92892105	      0.93183042	      0.52103997	     10.80608133	      5.76971509	    -17.26387580	     12.80701258	     12.80701258	      7.11165768	      0.22789398	     -6.91996117	     32.05679499	    -13.29569255	      0.75004005	     61.55869131	     61.55869131	     10.16970985	    -18.67944811	     13.31806804	     -9.41849456	      6.78348024	      3.27884783	     19.60425276	    -14.80856127	     -1.35764841	     52.64195671	     45.14959174	      0.00000000	      0.00000000	      8.45598796	     -6.92867485	     -1.94380879	     32.31172587	     46.23674557	      0.00000000	      0.00000000
